<svg xmlns="http://www.w3.org/2000/svg" width="51" height="51" viewBox="0 0 51 51">
  <g id="Group_6" data-name="Group 6" transform="translate(-583 -1222)">
    <circle id="Ellipse_2" data-name="Ellipse 2" cx="25.5" cy="25.5" r="25.5" transform="translate(583 1222)" fill="#11373a"/>
    <g id="_13561091531595602085" data-name="13561091531595602085" transform="translate(592.573 1233)">
      <path id="Path_16" data-name="Path 16" d="M23.8,25l-1.5-1.6A13.524,13.524,0,0,1,19,14.6a5.891,5.891,0,0,1,2.6-4.8A.949.949,0,0,0,22,8.7,1.2,1.2,0,0,0,21,8H11a1.2,1.2,0,0,0-1,.7.949.949,0,0,0,.4,1.1A5.891,5.891,0,0,1,13,14.6a13.724,13.724,0,0,1-3.3,8.8L8.2,25a2.905,2.905,0,0,0-.5,3.2A2.937,2.937,0,0,0,10.4,30H21.5a2.937,2.937,0,0,0,2.7-1.8A2.717,2.717,0,0,0,23.8,25ZM13.5,10h5A7.461,7.461,0,0,0,17,14.6,15.362,15.362,0,0,0,20.3,24H11.8a15.362,15.362,0,0,0,3.3-9.4A8.239,8.239,0,0,0,13.5,10Z" fill="#fcfcfc"/>
      <path id="Path_17" data-name="Path 17" d="M19,3a.945.945,0,0,0,1-1V1a1,1,0,0,0-2,0V2A.945.945,0,0,0,19,3Z" fill="#fcfcfc"/>
      <path id="Path_18" data-name="Path 18" d="M13,4a.945.945,0,0,0,1-1V2a1,1,0,0,0-2,0V3A.945.945,0,0,0,13,4Z" fill="#fcfcfc"/>
      <path id="Path_19" data-name="Path 19" d="M16,7a.945.945,0,0,0,1-1V5a1,1,0,0,0-2,0V6A.945.945,0,0,0,16,7Z" fill="#fcfcfc"/>
    </g>
  </g>
</svg>
