<svg xmlns="http://www.w3.org/2000/svg" width="22.974" height="22.969" viewBox="0 0 22.974 22.969">
  <path id="Icon_awesome-instagram" data-name="Icon awesome-instagram" d="M11.485,7.833a5.889,5.889,0,1,0,5.889,5.889A5.88,5.88,0,0,0,11.485,7.833Zm0,9.718a3.829,3.829,0,1,1,3.829-3.829,3.836,3.836,0,0,1-3.829,3.829Zm7.5-9.959a1.374,1.374,0,1,1-1.374-1.374A1.37,1.37,0,0,1,18.988,7.592Zm3.9,1.394a6.8,6.8,0,0,0-1.855-4.813A6.842,6.842,0,0,0,16.22,2.318c-1.9-.108-7.58-.108-9.477,0a6.832,6.832,0,0,0-4.813,1.85A6.82,6.82,0,0,0,.075,8.981c-.108,1.9-.108,7.58,0,9.477a6.8,6.8,0,0,0,1.855,4.813,6.851,6.851,0,0,0,4.813,1.855c1.9.108,7.58.108,9.477,0a6.8,6.8,0,0,0,4.813-1.855,6.842,6.842,0,0,0,1.855-4.813c.108-1.9.108-7.575,0-9.472Zm-2.45,11.506a3.876,3.876,0,0,1-2.183,2.183c-1.512.6-5.1.461-6.771.461s-5.264.133-6.771-.461a3.876,3.876,0,0,1-2.183-2.183c-.6-1.512-.461-5.1-.461-6.771s-.133-5.264.461-6.771A3.876,3.876,0,0,1,4.714,4.768c1.512-.6,5.1-.461,6.771-.461s5.264-.133,6.771.461a3.876,3.876,0,0,1,2.183,2.183c.6,1.512.461,5.1.461,6.771S21.038,18.986,20.439,20.493Z" transform="translate(0.005 -2.238)" fill="#11373a"/>
</svg>
