<svg xmlns="http://www.w3.org/2000/svg" width="28.281" height="22.969" viewBox="0 0 28.281 22.969">
  <path id="Icon_awesome-twitter" data-name="Icon awesome-twitter" d="M25.374,9.105c.018.251.018.5.018.754,0,7.662-5.832,16.491-16.491,16.491a16.379,16.379,0,0,1-8.9-2.6,11.991,11.991,0,0,0,1.4.072,11.608,11.608,0,0,0,7.2-2.476,5.806,5.806,0,0,1-5.419-4.02,7.309,7.309,0,0,0,1.095.09,6.13,6.13,0,0,0,1.525-.2,5.8,5.8,0,0,1-4.648-5.689v-.072a5.837,5.837,0,0,0,2.62.736A5.8,5.8,0,0,1,1.974,4.439,16.475,16.475,0,0,0,13.925,10.5a6.543,6.543,0,0,1-.144-1.328A5.8,5.8,0,0,1,23.813,5.211a11.412,11.412,0,0,0,3.679-1.4,5.781,5.781,0,0,1-2.548,3.194,11.62,11.62,0,0,0,3.338-.9,12.46,12.46,0,0,1-2.907,3Z" transform="translate(0 -3.381)" fill="#11373a"/>
</svg>
