<svg xmlns="http://www.w3.org/2000/svg" width="32.667" height="22.969" viewBox="0 0 32.667 22.969">
  <path id="Icon_awesome-youtube" data-name="Icon awesome-youtube" d="M33.035,8.094a4.1,4.1,0,0,0-2.888-2.907C27.6,4.5,17.384,4.5,17.384,4.5s-10.215,0-12.763.687A4.1,4.1,0,0,0,1.733,8.094a43.06,43.06,0,0,0-.683,7.914,43.06,43.06,0,0,0,.683,7.914,4.044,4.044,0,0,0,2.888,2.86c2.548.687,12.763.687,12.763.687s10.215,0,12.763-.687a4.044,4.044,0,0,0,2.888-2.86,43.06,43.06,0,0,0,.683-7.914,43.06,43.06,0,0,0-.683-7.914ZM14.043,20.865V11.151l8.538,4.857-8.538,4.857Z" transform="translate(-1.05 -4.5)" fill="#11373a"/>
</svg>
