<svg xmlns="http://www.w3.org/2000/svg" width="51" height="51" viewBox="0 0 51 51">
  <g id="Group_2" data-name="Group 2" transform="translate(-387 -522)">
    <circle id="Ellipse_2" data-name="Ellipse 2" cx="25.5" cy="25.5" r="25.5" transform="translate(387 522)" fill="#11373a"/>
    <path id="Icon_awesome-newspaper" data-name="Icon awesome-newspaper" d="M24.4,4.5H3.89A1.061,1.061,0,0,0,2.829,5.561v.354H1.061A1.061,1.061,0,0,0,0,6.976V19a2.476,2.476,0,0,0,2.476,2.476H23.341a2.122,2.122,0,0,0,2.122-2.122V5.561A1.061,1.061,0,0,0,24.4,4.5ZM2.476,19.353A.354.354,0,0,1,2.122,19V8.036h.707V19A.354.354,0,0,1,2.476,19.353Zm10.433-.707H6.189a.53.53,0,0,1-.53-.53v-.354a.53.53,0,0,1,.53-.53h6.719a.53.53,0,0,1,.53.53v.354A.53.53,0,0,1,12.908,18.646Zm9.195,0H15.384a.53.53,0,0,1-.53-.53v-.354a.53.53,0,0,1,.53-.53H22.1a.53.53,0,0,1,.53.53v.354A.53.53,0,0,1,22.1,18.646ZM12.908,14.4H6.189a.53.53,0,0,1-.53-.53v-.354a.53.53,0,0,1,.53-.53h6.719a.53.53,0,0,1,.53.53v.354A.53.53,0,0,1,12.908,14.4Zm9.195,0H15.384a.53.53,0,0,1-.53-.53v-.354a.53.53,0,0,1,.53-.53H22.1a.53.53,0,0,1,.53.53v.354A.53.53,0,0,1,22.1,14.4Zm0-4.244H6.189a.53.53,0,0,1-.53-.53V7.86a.53.53,0,0,1,.53-.53H22.1a.53.53,0,0,1,.53.53V9.628A.53.53,0,0,1,22.1,10.158Z" transform="translate(400 534.5)" fill="#fcfcfc"/>
  </g>
</svg>
